<?xml version="1.0" standalone="no"?>
<!DOCTYPE svg PUBLIC "-//W3C//DTD SVG 20010904//EN"
 "http://www.w3.org/TR/2001/REC-SVG-20010904/DTD/svg10.dtd">
<svg version="1.0" xmlns="http://www.w3.org/2000/svg"
 width="260.000000pt" height="260.000000pt" viewBox="0 0 260.000000 260.000000"
 preserveAspectRatio="xMidYMid meet">
<metadata>
Created by potrace 1.14, written by Peter Selinger 2001-2017
</metadata>
<g transform="translate(0.000000,260.000000) scale(0.100000,-0.100000)"
fill="#000000" stroke="none">
<path d="M0 1300 l0 -1300 1300 0 1300 0 0 1300 0 1300 -1300 0 -1300 0 0
-1300z m1010 105 l0 -195 -182 2 -183 3 -3 180 c-1 98 0 185 2 192 4 10 48 13
186 13 l180 0 0 -195z m270 30 c0 -125 2 -145 16 -145 8 0 13 -4 10 -9 -3 -5
-41 -9 -85 -9 -69 -1 -81 2 -100 22 -50 53 -30 155 35 182 19 8 45 14 59 14
21 0 25 5 25 30 0 23 -4 30 -20 30 -11 0 -20 7 -20 15 0 11 11 15 40 15 l40 0
0 -145z m873 114 c30 -16 37 -28 37 -67 0 -21 -8 -41 -23 -56 l-22 -22 33 -57
c18 -31 37 -57 42 -57 6 0 10 -4 10 -10 0 -5 -15 -10 -33 -10 -31 0 -35 4 -62
60 -25 52 -32 60 -57 60 -27 0 -28 -2 -28 -46 0 -37 4 -47 20 -51 40 -11 18
-23 -40 -23 -33 0 -60 4 -60 10 0 6 7 10 15 10 12 0 15 20 15 119 0 96 -3 120
-15 125 -8 3 -15 10 -15 16 0 14 156 13 183 -1z m282 -14 c14 -13 25 -34 25
-45 0 -26 -18 -62 -37 -73 -11 -7 -8 -17 13 -55 15 -26 35 -54 45 -64 27 -23
24 -28 -16 -28 -32 0 -37 4 -65 60 -25 49 -35 60 -55 60 -23 0 -25 -4 -25 -46
0 -37 4 -47 20 -51 40 -11 18 -23 -40 -23 -57 0 -78 11 -45 24 12 4 15 27 15
121 0 96 -3 115 -15 115 -8 0 -15 7 -15 15 0 12 16 15 85 15 78 0 88 -2 110
-25z m-2040 -10 c58 -57 14 -146 -78 -160 -45 -7 -47 -8 -47 -41 0 -30 4 -35
30 -40 54 -11 32 -24 -40 -24 -67 0 -93 12 -50 23 19 5 20 14 20 121 0 96 -3
116 -15 116 -8 0 -15 7 -15 15 0 12 16 15 85 15 78 0 88 -2 110 -25z m995
-114 c0 -95 5 -111 35 -111 50 0 55 7 55 86 0 59 -3 74 -15 74 -8 0 -15 7 -15
15 0 10 11 15 35 15 l35 0 0 -100 c0 -84 3 -100 16 -100 8 0 12 -4 9 -10 -8
-13 -65 -13 -65 0 0 7 -6 7 -19 0 -29 -15 -77 -12 -95 6 -12 11 -16 36 -16 94
0 61 -3 79 -16 84 -24 9 -6 26 27 26 l29 0 0 -79z m318 73 c17 -5 22 -14 22
-40 0 -41 -25 -47 -34 -9 -5 18 -13 25 -30 25 -35 0 -51 -27 -50 -81 1 -64 16
-81 70 -78 52 4 67 -7 30 -21 -71 -27 -129 -3 -146 58 -25 95 45 170 138 146z
m206 -15 c19 -15 26 -30 26 -55 l0 -34 -66 0 -66 0 7 -27 c12 -48 25 -56 77
-50 27 4 48 2 48 -3 0 -16 -37 -30 -80 -30 -78 0 -121 81 -84 157 31 62 90 80
138 42z m-1407 -9 c5 -19 6 -19 33 2 32 24 60 18 60 -12 0 -15 -7 -20 -24 -20
-50 0 -56 -8 -56 -75 0 -58 2 -64 22 -67 12 -2 23 -9 26 -15 3 -10 -14 -13
-62 -13 -62 0 -87 13 -51 26 11 5 15 23 15 79 0 56 -4 74 -15 79 -32 12 -17
26 38 35 5 0 11 -8 14 -19z"/>
<path d="M690 1405 l0 -155 140 0 140 0 0 155 0 155 -140 0 -140 0 0 -155z
m78 87 c3 -17 -2 -22 -17 -22 -16 0 -21 6 -21 26 0 33 33 30 38 -4z m162 3 c0
-24 -3 -25 -60 -25 -57 0 -60 1 -60 25 0 24 3 25 60 25 57 0 60 -1 60 -25z
m-160 -90 c0 -18 -5 -25 -20 -25 -15 0 -20 7 -20 25 0 18 5 25 20 25 15 0 20
-7 20 -25z m160 0 c0 -24 -3 -25 -60 -25 -57 0 -60 1 -60 25 0 24 3 25 60 25
57 0 60 -1 60 -25z m-162 -87 c-5 -34 -38 -37 -38 -4 0 20 5 26 21 26 15 0 20
-5 17 -22z m162 -3 c0 -24 -3 -25 -60 -25 -57 0 -60 1 -60 25 0 24 3 25 60 25
57 0 60 -1 60 -25z"/>
<path d="M1174 1453 c-35 -24 -44 -94 -18 -131 12 -17 24 -22 47 -20 l32 3 0
75 c0 73 -1 75 -25 78 -14 1 -30 -1 -36 -5z"/>
<path d="M2050 1475 c0 -54 0 -55 29 -55 36 0 61 23 61 55 0 44 -10 55 -51 55
l-39 0 0 -55z"/>
<path d="M2320 1475 c0 -54 0 -55 29 -55 37 0 61 23 61 59 0 36 -17 51 -57 51
l-33 0 0 -55z"/>
<path d="M270 1454 l0 -67 37 6 c44 8 63 29 63 72 0 41 -16 55 -62 55 l-38 0
0 -66z"/>
<path d="M1826 1444 c-26 -25 -19 -34 29 -34 46 0 58 13 33 38 -17 17 -44 15
-62 -4z"/>
</g>
</svg>
